<?xml version="1.0" encoding="utf-8"?>
<!-- Generator: Adobe Illustrator 21.1.0, SVG Export Plug-In . SVG Version: 6.00 Build 0)  -->
<svg version="1.0" id="Layer_1" xmlns="http://www.w3.org/2000/svg" xmlns:xlink="http://www.w3.org/1999/xlink" x="0px" y="0px"
	 viewBox="0 0 1000 1000" enable-background="new 0 0 1000 1000" xml:space="preserve">
<path fill="#FF8300" d="M900,1000H100C45,1000,0,955,0,900V100C0,45,45,0,100,0h800c55,0,100,45,100,100v800
	C1000,955,955,1000,900,1000z"/>
<g>
	<g>
		<g>
			<path fill="#F9F9F9" d="M455.9,467.7c8.3-5.5,17.8-9.8,27.4-13.8c4.9-2,9.8-4.1,14.6-6.1c5-2.2,10-4.5,14.7-7.2
				c4.8-2.6,9.4-5.7,13.9-9c2.2-1.8,4.4-3.4,6.4-5.4c1-1,2.1-1.9,3-2.9l2.8-3.1c7.4-8.4,12.5-18.8,15.1-29.1c0.6-2.6,1-5.2,1.5-7.8
				c0.2-2.7,0.6-5.4,0.7-8c0-2.4,0-4.8,0-7.2c-0.1-2.4-0.2-4.8-0.4-7.1c-0.2-2.8-0.6-6.4-0.9-9.1c0,0-0.7-2.8-2.9-2.9
				c-1.8-0.3-8.3,4.5-12.1,7.5c0.3,1.9,0.6,3.5,0.7,5.5c0.1,2.1,0.2,4.3,0.2,6.4c-0.1,2.2-0.1,4.4-0.2,6.6c-0.2,2-0.5,3.9-0.7,5.9
				c-0.4,2-0.8,4.1-1.3,6.1l-0.9,3l-0.5,1.5l-0.6,1.4l-1.2,2.9c-0.5,1-1,1.9-1.5,2.8c-0.9,1.9-2.2,3.6-3.3,5.4
				c-0.6,0.9-1.3,1.7-2,2.6c-0.7,0.8-1.3,1.7-2.1,2.5c-0.2,0.2-0.4,0.4-0.6,0.6c-1.6-4.9-6.6-21.5-5.7-33c2-19,28.5-33.7,31.9-33.3
				c3.4,0.4,4.7,7.3,4.7,7.3s11.2-21.6,3.4-26.9c-2.8-1.9-7.7-2.1-12.6-1.6c-1.4-4-2.8-7.8-4.5-11.5c-3.3-7.3-6.9-14.1-12.7-20
				c-1.5-1.5-3.2-2.9-5.5-4.1c-0.6-0.3-1.1-0.5-1.9-0.8c-0.8-0.3-1.9-0.5-2.6-0.6l-0.6,0l-0.3,0l-0.2,0c-1.2-0.1-0.5,0-0.8,0
				c-0.6,0-1.3,0.1-1.8,0.2c-4.7,0.8-7.7,2.7-10.5,4.5c-5.4,3.6-9.4,7.4-13,10.7c-0.3,0.3-0.7,0.6-1,0.9c-1.1,0.8-2.4,2-4,3.6
				c-0.5,0.5-1.1,0.9-1.6,1.4c-4.8,3.5-9.5-0.4-11.9-3.2c-6.2-8.1-17.5-21.9-21.2-22.7c-4.5-1-10.6,7.2-8.1,13.5c0,0,0.4,0.5,1.1,1
				c0.7,0.5,0.3-4.8,2.8-4.3c2.4,0.5,2.7,8.6,4.9,10.3c0,0-4.5,3.2-8.1-0.4c0,0-0.9-0.8-1.9-1.7c-0.9-0.9-1.9,2.9,0.5,4.9
				c2.3,2,3.5,3.3,7.7,4.9c2.2,0.8,9.4,3.4,17.1,7c12.4,7.9,18.8,1.8,18.8,1.8c0.4-0.3,0.8-0.5,1.3-0.8c3.5-2.4,6.8-5.2,10.5-8.3
				c3.7-3,7.7-6.4,12.1-9c2.1-1.3,4.6-2.3,6.1-2.4c0.1,0,0.2,0,0.3,0l0.2,0l0.6,0.1c0.1,0.1-0.2,0.1-0.2,0c0,0,0.2,0.2,0.3,0.2
				c0.6,0.4,1.5,1.1,2.3,2c3.5,3.9,6.6,10.1,9.2,16.7c1,2.6,2.2,6.3,3.1,9c-2.2,0.6-3.6,1.1-3.6,1.1c-1.6-3.7-4.4-7-9.4-5.9
				c-4.8,1.4-12.1,6.1-22.3,13.2c-10.6,7-20.9,5.9-20.9,5.9c3.1,7.2,7.8,8.7,7.8,8.7c-10.2,8-15.7,22.4-15.7,22.4h0
				c-4.6,10-9.6,23.5-12.4,39.4c-4.6-0.3-9.8-1.9-9.8-1.9c-15.5-5-23.5-8.8-23.5-8.8s-34.8-14.3-12.9-47.6c0,0,18.4-20.3-16.8-37.1
				c0,0-26.3-13.1-59.4-14.5c-33.1-1.4-123.1-3.7-174.2-10.7c0,0,64.7,60.8,86.5,80.2c0,0,11.2,10.6,24.6,9.3c0,0,22.1-0.4,52.7-7.2
				c0,0-16.3,14-35.1,16.5c0,0,19.2,38.5,46.1,54c0,0,9.1,5.1,18.2,3.4c0,0,19.8-2.8,36.2-11c0,0-8.3,12.5-34.5,19.3
				c0,0,26.2,21.2,65.2,30.3c0,0-2.1,13.8,11.6,22.3c0-6.4,1.2-12.5,4.1-17.9C440.4,479.8,447.6,473.1,455.9,467.7z"/>
			<path fill="#F9F9F9" d="M665.8,299.7c-33.1,1.4-59.4,14.5-59.4,14.5c-35.2,16.8-16.7,37.1-16.7,37.1
				c21.9,33.2-12.9,47.6-12.9,47.6s-9.2,3.8-22.5,7.9c-3.4,8.1-8.6,14.9-11.6,18.5c0,0-3.6,4.5-7.9,8c-0.9,0.8-1.9,1.5-2.8,2.3
				l-1.5,1.2c-5,3.8-9.8,6.9-14.7,9.5c-5,2.9-10.3,5.3-15.2,7.5l-14.8,6.2c-8.9,3.8-18.2,8-26.4,13.3c-0.2,0.1-0.3,0.2-0.5,0.3
				c-4.5,3.1-7.5,5.6-9.6,7.6c40.2-0.2,51,24.9,51,24.9s14.9-34.6,74.6-22.3c19.4-4,49.4-12.6,70.3-30.3
				c-26.2-6.8-34.5-19.3-34.5-19.3c16.4,8.2,36.2,11,36.2,11c9.1,1.7,18.2-3.4,18.2-3.4c26.9-15.5,46.1-54,46.1-54
				c-18.8-2.5-35-16.5-35-16.5c30.6,6.8,52.7,7.2,52.7,7.2c13.4,1.3,24.6-9.3,24.6-9.3c21.8-19.3,86.5-80.2,86.5-80.2
				C789,296,698.9,298.3,665.8,299.7z"/>
		</g>
	</g>
	<g>
		<path fill="#F9F9F9" d="M292.5,542.6V594c0,0.5-0.2,0.9-0.5,1.3c-0.3,0.4-0.8,0.5-1.3,0.5h-11.2c-0.5,0-0.9-0.2-1.3-0.5
			c-0.3-0.4-0.5-0.8-0.5-1.3v-24.2c0-0.5-0.2-0.8-0.7-0.8c-0.5-0.1-0.8,0.1-1.1,0.5l-12.6,20.4c-0.3,0.4-0.7,0.6-1.2,0.6
			c-0.5,0-1-0.2-1.3-0.6l-12.5-20.4c-0.3-0.4-0.6-0.6-1.1-0.5c-0.5,0.1-0.7,0.3-0.7,0.8V594c0,0.5-0.2,0.9-0.5,1.3
			c-0.3,0.4-0.8,0.5-1.3,0.5h-11.2c-0.5,0-0.9-0.2-1.3-0.5c-0.3-0.4-0.5-0.8-0.5-1.3v-51.3c0-0.5,0.2-0.9,0.5-1.3
			c0.3-0.4,0.8-0.5,1.3-0.5h10.4c0.5,0,1,0.2,1.6,0.4c0.5,0.3,0.9,0.7,1.2,1.1l14.3,21.2c0.3,0.4,0.7,0.6,1,0.6c0.4,0,0.7-0.2,1-0.6
			l14.3-21.2c0.3-0.4,0.7-0.8,1.3-1.1c0.5-0.3,1.1-0.4,1.6-0.4h10.4c0.5,0,0.9,0.2,1.3,0.5C292.3,541.7,292.5,542.1,292.5,542.6z"/>
		<path fill="#F9F9F9" d="M300.9,568.3c0-3.9,0.7-7.6,2.2-11c1.5-3.5,3.5-6.5,6-9.1c2.5-2.6,5.5-4.6,8.9-6.1c3.4-1.5,7.1-2.3,11-2.3
			c3.9,0,7.5,0.8,11,2.3c3.4,1.5,6.4,3.5,9,6.1c2.6,2.6,4.6,5.6,6.1,9.1c1.5,3.5,2.2,7.1,2.2,11c0,3.9-0.7,7.6-2.2,11
			c-1.5,3.5-3.5,6.5-6.1,9.1c-2.6,2.6-5.6,4.6-9,6.1c-3.4,1.5-7.1,2.3-11,2.3c-3.9,0-7.5-0.8-11-2.3c-3.4-1.5-6.4-3.5-8.9-6.1
			c-2.5-2.6-4.5-5.6-6-9.1C301.7,575.9,300.9,572.2,300.9,568.3z M315.7,568.3c0,1.9,0.3,3.7,1,5.4c0.7,1.7,1.7,3.2,2.9,4.5
			c1.2,1.3,2.6,2.3,4.3,3.1c1.6,0.8,3.4,1.2,5.2,1.2s3.6-0.4,5.2-1.2c1.6-0.8,3.1-1.8,4.3-3.1c1.2-1.3,2.2-2.8,2.9-4.5
			c0.7-1.7,1-3.5,1-5.4c0-1.9-0.3-3.6-1-5.4c-0.7-1.7-1.7-3.2-2.9-4.5c-1.2-1.3-2.7-2.3-4.3-3.1c-1.6-0.8-3.4-1.2-5.2-1.2
			s-3.6,0.4-5.2,1.2c-1.6,0.8-3.1,1.8-4.3,3.1c-1.2,1.3-2.2,2.8-2.9,4.5C316,564.6,315.7,566.4,315.7,568.3z"/>
		<path fill="#F9F9F9" d="M380.8,594.1l-22.5-51.2c-0.3-0.5-0.3-1.1,0-1.5c0.2-0.5,0.7-0.7,1.3-0.7h12.1c0.5,0,1,0.2,1.5,0.5
			c0.5,0.3,0.8,0.7,1.1,1.2l13.1,30.2c0.3,0.5,0.6,0.7,1,0.7c0.4,0,0.7-0.2,1-0.7l13-30.2c0.3-0.4,0.6-0.8,1.1-1.2
			c0.5-0.3,1-0.5,1.5-0.5h12.4c0.5,0,0.9,0.2,1.2,0.6c0.3,0.4,0.3,0.8,0.1,1.2l-22.7,51.5c-0.3,0.5-0.6,0.8-1.1,1.2
			c-0.5,0.3-1,0.5-1.5,0.5h-9.9c-0.5,0-1-0.2-1.5-0.5C381.4,595,381,594.6,380.8,594.1z"/>
		<path fill="#F9F9F9" d="M438.1,595.8h-11.2c-0.5,0-1-0.2-1.3-0.5c-0.3-0.4-0.5-0.8-0.5-1.3v-51.3c0-0.5,0.2-0.9,0.5-1.3
			c0.3-0.4,0.8-0.5,1.3-0.5h11.2c0.5,0,0.9,0.2,1.3,0.5c0.3,0.3,0.5,0.8,0.5,1.3V594c0,0.5-0.2,0.9-0.5,1.3
			C439,595.6,438.6,595.8,438.1,595.8z"/>
		<path fill="#F9F9F9" d="M512.5,542.6V594c0,0.5-0.2,0.9-0.5,1.3c-0.4,0.4-0.8,0.5-1.3,0.5h-11.2c-0.5,0-0.9-0.2-1.3-0.5
			c-0.3-0.4-0.5-0.8-0.5-1.3v-24.2c0-0.5-0.2-0.8-0.7-0.8c-0.4-0.1-0.8,0.1-1.1,0.5l-12.6,20.4c-0.2,0.4-0.6,0.6-1.2,0.6
			c-0.5,0-1-0.2-1.3-0.6l-12.5-20.4c-0.3-0.4-0.6-0.6-1-0.5c-0.5,0.1-0.7,0.3-0.7,0.8V594c0,0.5-0.2,0.9-0.5,1.3
			c-0.4,0.4-0.8,0.5-1.3,0.5h-11.2c-0.5,0-0.9-0.2-1.3-0.5c-0.4-0.4-0.5-0.8-0.5-1.3v-51.3c0-0.5,0.2-0.9,0.5-1.3
			c0.3-0.4,0.8-0.5,1.3-0.5h10.4c0.5,0,1,0.2,1.6,0.4c0.5,0.3,0.9,0.7,1.2,1.1l14.3,21.2c0.3,0.4,0.6,0.6,1,0.6c0.4,0,0.7-0.2,1-0.6
			l14.3-21.2c0.3-0.4,0.7-0.8,1.3-1.1c0.5-0.3,1.1-0.4,1.6-0.4h10.4c0.5,0,0.9,0.2,1.3,0.5C512.4,541.7,512.5,542.1,512.5,542.6z"/>
		<path fill="#F9F9F9" d="M539.8,595.8h-11.2c-0.5,0-1-0.2-1.3-0.5c-0.3-0.4-0.5-0.8-0.5-1.3v-51.3c0-0.5,0.2-0.9,0.5-1.3
			c0.3-0.4,0.8-0.5,1.3-0.5h11.2c0.5,0,0.9,0.2,1.3,0.5c0.3,0.3,0.5,0.8,0.5,1.3V594c0,0.5-0.2,0.9-0.5,1.3
			C540.7,595.6,540.3,595.8,539.8,595.8z"/>
		<path fill="#F9F9F9" d="M568.1,556.4v3.2c0,0.5,0.2,0.9,0.5,1.3c0.3,0.4,0.8,0.5,1.3,0.5h20.2c0.5,0,0.9,0.2,1.3,0.5
			c0.3,0.3,0.5,0.8,0.5,1.3v10.4c0,0.5-0.2,0.9-0.5,1.3c-0.3,0.4-0.8,0.5-1.3,0.5h-20.2c-0.5,0-0.9,0.2-1.3,0.5
			c-0.3,0.4-0.5,0.8-0.5,1.3v2.9c0,0.5,0.2,0.9,0.5,1.3c0.3,0.4,0.8,0.5,1.3,0.5h23.2c0.5,0,0.9,0.2,1.3,0.5
			c0.3,0.4,0.5,0.8,0.5,1.3V594c0,0.5-0.2,0.9-0.5,1.3c-0.4,0.4-0.8,0.5-1.3,0.5h-37.9c-0.5,0-0.9-0.2-1.3-0.5
			c-0.3-0.4-0.5-0.8-0.5-1.3v-51.4c0-0.5,0.2-0.9,0.5-1.3c0.3-0.3,0.8-0.5,1.3-0.5h37.9c0.5,0,0.9,0.2,1.3,0.5
			c0.3,0.4,0.5,0.8,0.5,1.3v10.2c0,0.5-0.2,0.9-0.5,1.3c-0.4,0.3-0.8,0.5-1.3,0.5h-23.2c-0.5,0-0.9,0.2-1.3,0.5
			C568.3,555.5,568.1,555.9,568.1,556.4z"/>
		<path fill="#F9F9F9" d="M657.5,542.6V594c0,0.5-0.2,0.9-0.5,1.3c-0.3,0.4-0.8,0.5-1.3,0.5h-11c-0.5,0-1-0.2-1.6-0.5
			c-0.5-0.3-1-0.7-1.3-1.1l-19.4-27.6c-0.3-0.4-0.6-0.6-0.9-0.5c-0.3,0.1-0.5,0.4-0.5,0.9V594c0,0.5-0.2,0.9-0.5,1.3
			c-0.4,0.4-0.8,0.5-1.3,0.5h-11.2c-0.5,0-0.9-0.2-1.3-0.5c-0.4-0.4-0.5-0.8-0.5-1.3v-51.4c0-0.5,0.2-0.9,0.5-1.3
			c0.3-0.3,0.8-0.5,1.3-0.5h11.2c0.5,0,1,0.1,1.6,0.4c0.5,0.3,1,0.6,1.3,1l19.4,27.6c0.3,0.4,0.6,0.6,0.9,0.5c0.3,0,0.5-0.3,0.5-0.8
			v-26.9c0-0.5,0.2-0.9,0.5-1.3c0.3-0.3,0.8-0.5,1.3-0.5h11c0.5,0,0.9,0.2,1.3,0.5C657.3,541.6,657.5,542.1,657.5,542.6z"/>
		<path fill="#F9F9F9" d="M707.1,554.6h-10.4c-0.5,0-0.9,0.2-1.3,0.5c-0.4,0.3-0.5,0.8-0.5,1.3V594c0,0.5-0.2,0.9-0.5,1.3
			c-0.3,0.4-0.8,0.5-1.3,0.5h-11.2c-0.5,0-0.9-0.2-1.3-0.5c-0.4-0.4-0.5-0.8-0.5-1.3v-37.6c0-0.5-0.2-0.9-0.5-1.3
			c-0.3-0.4-0.8-0.5-1.3-0.5h-10.6c-0.5,0-0.9-0.2-1.3-0.5c-0.3-0.4-0.5-0.8-0.5-1.3v-10.2c0-0.5,0.2-0.9,0.5-1.3
			c0.3-0.3,0.8-0.5,1.3-0.5h39.4c0.5,0,1,0.2,1.3,0.5c0.3,0.4,0.5,0.8,0.5,1.3v10.2c0,0.5-0.2,0.9-0.5,1.3
			C708,554.4,707.6,554.6,707.1,554.6z"/>
		<path fill="#F9F9F9" d="M712.9,568.3c0-3.9,0.7-7.6,2.2-11c1.5-3.5,3.5-6.5,6-9.1c2.5-2.6,5.5-4.6,8.9-6.1c3.4-1.5,7.1-2.3,11-2.3
			c3.9,0,7.5,0.8,11,2.3c3.4,1.5,6.4,3.5,9,6.1c2.6,2.6,4.6,5.6,6.1,9.1c1.5,3.5,2.2,7.1,2.2,11c0,3.9-0.7,7.6-2.2,11
			c-1.5,3.5-3.5,6.5-6.1,9.1c-2.6,2.6-5.6,4.6-9,6.1c-3.4,1.5-7.1,2.3-11,2.3c-3.9,0-7.5-0.8-11-2.3c-3.4-1.5-6.4-3.5-8.9-6.1
			c-2.5-2.6-4.5-5.6-6-9.1C713.6,575.9,712.9,572.2,712.9,568.3z M727.6,568.3c0,1.9,0.3,3.7,1,5.4c0.7,1.7,1.7,3.2,2.9,4.5
			c1.2,1.3,2.6,2.3,4.3,3.1c1.6,0.8,3.4,1.2,5.2,1.2c1.8,0,3.6-0.4,5.2-1.2c1.6-0.8,3.1-1.8,4.3-3.1c1.2-1.3,2.2-2.8,2.9-4.5
			c0.7-1.7,1-3.5,1-5.4c0-1.9-0.4-3.6-1-5.4c-0.7-1.7-1.7-3.2-2.9-4.5c-1.2-1.3-2.7-2.3-4.3-3.1c-1.6-0.8-3.4-1.2-5.2-1.2
			c-1.8,0-3.6,0.4-5.2,1.2c-1.6,0.8-3.1,1.8-4.3,3.1c-1.2,1.3-2.2,2.8-2.9,4.5C728,564.6,727.6,566.4,727.6,568.3z"/>
		<path fill="#F9F9F9" d="M253,670.3c-1.9,3.1-4,6-6.4,8.5c-2.3,2.6-4.9,4.7-7.8,6.5c-2.9,1.8-6.1,3.2-9.6,4.2
			c-3.5,1-7.4,1.5-11.6,1.5c-5.3,0-10.3-1-14.9-3c-4.6-2-8.7-4.7-12.2-8.1c-3.5-3.4-6.2-7.4-8.2-12c-2-4.6-3-9.5-3-14.7
			c0-5.2,1-10.1,3-14.7c2-4.6,4.7-8.6,8.2-12c3.5-3.4,7.5-6.1,12.2-8.1c4.6-2,9.6-3,14.9-3c4.4,0,8.3,0.5,11.8,1.5
			c3.5,1,6.7,2.4,9.5,4.2c2.8,1.8,5.4,4,7.7,6.6c2.3,2.6,4.4,5.4,6.3,8.5c0.3,0.5,0.4,1.1,0.2,1.7c-0.2,0.6-0.6,1-1.2,1.3l-14.1,5.6
			c-0.7,0.3-1.3,0.3-2,0c-0.7-0.3-1.2-0.7-1.5-1.2c-1.9-3.1-4.2-5.4-7-7.1c-2.7-1.6-6-2.5-9.8-2.5c-2.5,0-4.9,0.5-7.1,1.6
			c-2.2,1.1-4.2,2.5-5.8,4.3c-1.7,1.8-2.9,3.8-3.9,6.2c-0.9,2.3-1.4,4.8-1.4,7.2c0,2.5,0.5,5,1.4,7.3c0.9,2.3,2.2,4.3,3.9,6.1
			c1.7,1.7,3.6,3.1,5.8,4.2c2.2,1.1,4.6,1.6,7.1,1.6c3.6,0,6.9-0.9,9.9-2.7c2.9-1.8,5.3-4.1,7-6.9c0.3-0.5,0.8-0.9,1.4-1.2
			c0.6-0.3,1.3-0.3,1.9,0l14.1,5.6c0.6,0.3,1,0.7,1.2,1.3C253.4,669.1,253.3,669.7,253,670.3z"/>
		<path fill="#F9F9F9" d="M278.1,689.7h-14.9c-0.7,0-1.3-0.2-1.7-0.7c-0.4-0.5-0.6-1-0.6-1.7v-68.4c0-0.7,0.2-1.2,0.6-1.7
			c0.4-0.5,1-0.7,1.7-0.7h14.9c0.7,0,1.2,0.2,1.7,0.7c0.5,0.5,0.7,1,0.7,1.7v68.4c0,0.7-0.2,1.2-0.7,1.7
			C279.3,689.5,278.7,689.7,278.1,689.7z"/>
		<path fill="#F9F9F9" d="M293.3,618.9c0-0.7,0.2-1.2,0.7-1.7c0.5-0.5,1-0.7,1.7-0.7h14.9c0.7,0,1.2,0.2,1.7,0.7
			c0.5,0.5,0.7,1,0.7,1.7v40.6c0,2.6,0.4,4.8,1.2,6.5c0.8,1.7,1.9,3,3.1,4c1.2,1,2.5,1.7,3.9,2.1c1.4,0.4,2.7,0.6,3.8,0.6
			c1.1,0,2.4-0.2,3.8-0.6c1.4-0.4,2.7-1.1,3.9-2.1c1.2-1,2.2-2.3,3-4c0.8-1.7,1.3-3.9,1.3-6.5v-40.6c0-0.7,0.2-1.2,0.7-1.7
			c0.5-0.5,1-0.7,1.7-0.7h14.9c0.7,0,1.2,0.2,1.7,0.7c0.5,0.5,0.7,1,0.7,1.7v40.6c0,4.7-0.7,9.1-2.2,12.9c-1.5,3.9-3.6,7.2-6.4,9.9
			c-2.8,2.7-6.1,4.9-10,6.4c-3.9,1.5-8.2,2.3-13,2.3c-4.8,0-9.1-0.8-13-2.3c-3.9-1.5-7.2-3.6-10-6.4c-2.8-2.7-4.9-6-6.5-9.9
			c-1.5-3.9-2.3-8.2-2.3-12.9V618.9z"/>
		<path fill="#F9F9F9" d="M371.3,687.3v-68.5c0-0.7,0.2-1.2,0.7-1.7c0.5-0.5,1-0.7,1.7-0.7h27.1c10.4,0,18.9,3.1,25.5,9.2
			c3.6,3.3,6.3,7.3,8.2,11.9c1.9,4.6,2.8,9.8,2.8,15.5c0,5.7-0.9,10.9-2.8,15.6c-1.9,4.6-4.6,8.6-8.2,12c-3.3,3-7.1,5.3-11.4,6.8
			c-4.3,1.5-9,2.3-14.2,2.3h-27.1c-0.7,0-1.2-0.2-1.7-0.7C371.5,688.5,371.3,688,371.3,687.3z M393.3,671.3h7.5
			c1.9,0,3.8-0.2,5.8-0.7c2-0.5,3.8-1.4,5.4-2.7c1.6-1.3,2.9-3.1,3.9-5.5c1-2.4,1.5-5.5,1.5-9.3c0-3.8-0.5-6.9-1.5-9.3
			c-1-2.4-2.4-4.2-4-5.5c-1.6-1.3-3.4-2.2-5.4-2.7c-2-0.5-3.9-0.7-5.7-0.7h-7.5c-0.7,0-1.2,0.2-1.7,0.7c-0.5,0.5-0.7,1-0.7,1.7v31.5
			c0,0.7,0.2,1.2,0.7,1.7C392.1,671,392.7,671.3,393.3,671.3z"/>
		<path fill="#F9F9F9" d="M462.4,618.7c0.3-0.6,0.7-1.1,1.3-1.6c0.6-0.4,1.3-0.6,2-0.6h13.9c0.7,0,1.3,0.2,1.9,0.6
			c0.6,0.4,1.1,1,1.3,1.6l29,68.1c0.3,0.6,0.2,1.2-0.1,1.9c-0.4,0.7-1.1,1-2.1,1h-17c-0.7,0-1.4-0.2-2-0.7c-0.6-0.4-1.1-0.9-1.4-1.5
			l-2.7-6c-0.3-0.6-0.8-1.1-1.4-1.6c-0.6-0.4-1.3-0.7-1.9-0.7h-21c-0.7,0-1.4,0.2-2,0.7c-0.6,0.4-1.1,0.9-1.3,1.6l-2.8,6
			c-0.3,0.6-0.7,1.1-1.3,1.5c-0.6,0.4-1.3,0.7-1.9,0.7h-17.1c-0.3,0-0.7-0.1-1-0.2c-0.4-0.1-0.7-0.3-0.9-0.6c-0.2-0.3-0.4-0.6-0.4-1
			c-0.1-0.4,0-0.9,0.3-1.4L462.4,618.7z M468.3,662.2h8.8c0.7,0,1.1-0.2,1.4-0.6c0.3-0.4,0.3-1-0.1-1.6c-0.7-1.7-1.5-3.6-2.4-5.9
			c-0.9-2.2-1.8-4.3-2.6-6.3c-0.3-0.6-0.6-0.9-0.9-0.9c-0.3,0-0.6,0.3-0.9,0.9l-5,12.1c-0.3,0.6-0.3,1.1,0,1.6
			C467,662,467.5,662.2,468.3,662.2z"/>
		<path fill="#F9F9F9" d="M518.6,687.3v-68.5c0-0.7,0.2-1.2,0.7-1.7c0.5-0.5,1-0.7,1.7-0.7h27.1c10.4,0,18.9,3.1,25.5,9.2
			c3.6,3.3,6.3,7.3,8.1,11.9c1.9,4.6,2.8,9.8,2.8,15.5c0,5.7-0.9,10.9-2.8,15.6c-1.9,4.6-4.6,8.6-8.1,12c-3.3,3-7.1,5.3-11.4,6.8
			c-4.3,1.5-9,2.3-14.2,2.3H521c-0.7,0-1.2-0.2-1.7-0.7C518.9,688.5,518.6,688,518.6,687.3z M540.7,671.3h7.5c1.9,0,3.8-0.2,5.8-0.7
			c2-0.5,3.8-1.4,5.4-2.7c1.6-1.3,2.9-3.1,3.9-5.5c1-2.4,1.5-5.5,1.5-9.3c0-3.8-0.5-6.9-1.5-9.3c-1-2.4-2.4-4.2-4-5.5
			c-1.6-1.3-3.4-2.2-5.4-2.7c-2-0.5-3.9-0.7-5.7-0.7h-7.5c-0.7,0-1.2,0.2-1.7,0.7c-0.5,0.5-0.7,1-0.7,1.7v31.5
			c0,0.7,0.2,1.2,0.7,1.7C539.5,671,540,671.3,540.7,671.3z"/>
		<path fill="#F9F9F9" d="M609.8,618.7c0.3-0.6,0.7-1.1,1.3-1.6c0.6-0.4,1.3-0.6,2-0.6h13.9c0.7,0,1.3,0.2,1.9,0.6
			c0.6,0.4,1.1,1,1.3,1.6l29,68.1c0.3,0.6,0.2,1.2-0.2,1.9c-0.4,0.7-1.1,1-2.1,1h-17c-0.7,0-1.4-0.2-2-0.7c-0.6-0.4-1.1-0.9-1.4-1.5
			l-2.7-6c-0.3-0.6-0.8-1.1-1.4-1.6c-0.6-0.4-1.3-0.7-1.9-0.7h-21c-0.7,0-1.4,0.2-2,0.7c-0.6,0.4-1.1,0.9-1.3,1.6l-2.8,6
			c-0.3,0.6-0.7,1.1-1.3,1.5c-0.6,0.4-1.3,0.7-1.9,0.7H583c-0.3,0-0.7-0.1-1-0.2c-0.4-0.1-0.7-0.3-0.9-0.6c-0.2-0.3-0.4-0.6-0.4-1
			c-0.1-0.4,0-0.9,0.3-1.4L609.8,618.7z M615.6,662.2h8.8c0.7,0,1.1-0.2,1.4-0.6c0.3-0.4,0.3-1-0.1-1.6c-0.7-1.7-1.5-3.6-2.4-5.9
			c-0.9-2.2-1.8-4.3-2.6-6.3c-0.3-0.6-0.6-0.9-0.9-0.9c-0.3,0-0.6,0.3-0.9,0.9l-5,12.1c-0.3,0.6-0.3,1.1,0,1.6
			C614.4,662,614.9,662.2,615.6,662.2z"/>
		<path fill="#F9F9F9" d="M734.2,618.8v68.5c0,0.7-0.2,1.2-0.7,1.7c-0.5,0.5-1,0.7-1.7,0.7h-14.7c-0.7,0-1.4-0.2-2.1-0.6
			c-0.7-0.4-1.3-0.9-1.7-1.4l-25.9-36.8c-0.4-0.5-0.8-0.8-1.2-0.7c-0.4,0.1-0.6,0.5-0.6,1.2v35.9c0,0.7-0.2,1.2-0.7,1.7
			c-0.5,0.5-1,0.7-1.7,0.7h-14.9c-0.7,0-1.2-0.2-1.7-0.7c-0.5-0.5-0.7-1-0.7-1.7v-68.5c0-0.7,0.2-1.2,0.7-1.7c0.5-0.5,1-0.7,1.7-0.7
			h14.9c0.7,0,1.4,0.2,2.1,0.5c0.7,0.4,1.3,0.8,1.7,1.4l25.8,36.8c0.4,0.5,0.8,0.8,1.2,0.7c0.4-0.1,0.6-0.4,0.6-1.1v-35.9
			c0-0.7,0.2-1.2,0.7-1.7c0.5-0.5,1-0.7,1.7-0.7h14.7c0.7,0,1.2,0.2,1.7,0.7C734,617.5,734.2,618.1,734.2,618.8z"/>
		<path fill="#F9F9F9" d="M743.1,653c0-5.2,1-10.1,3-14.7c2-4.6,4.7-8.6,8.1-12.1c3.4-3.4,7.3-6.2,11.9-8.2c4.6-2,9.4-3,14.6-3
			s10,1,14.6,3c4.6,2,8.6,4.7,12,8.2c3.4,3.4,6.1,7.5,8.1,12.1c2,4.6,3,9.5,3,14.7c0,5.2-1,10.1-3,14.7c-2,4.6-4.7,8.6-8.1,12.1
			c-3.4,3.4-7.4,6.2-12,8.2c-4.6,2-9.4,3-14.6,3s-10-1-14.6-3c-4.6-2-8.5-4.7-11.9-8.2c-3.4-3.4-6.1-7.5-8.1-12.1
			C744.1,663.1,743.1,658.2,743.1,653z M762.8,653c0,2.5,0.5,4.9,1.4,7.2c0.9,2.3,2.2,4.3,3.8,6c1.6,1.7,3.5,3.1,5.7,4.2
			c2.2,1,4.5,1.6,7,1.6c2.4,0,4.8-0.5,7-1.6c2.2-1,4.1-2.4,5.8-4.2c1.7-1.7,2.9-3.7,3.9-6c0.9-2.3,1.4-4.7,1.4-7.2
			c0-2.5-0.5-4.9-1.4-7.2c-0.9-2.3-2.2-4.3-3.9-6c-1.7-1.7-3.6-3.1-5.8-4.1c-2.2-1-4.5-1.6-7-1.6c-2.5,0-4.8,0.5-7,1.6
			c-2.2,1-4.1,2.4-5.7,4.1c-1.6,1.7-2.9,3.7-3.8,6C763.3,648.2,762.8,650.6,762.8,653z"/>
	</g>
</g>
</svg>
