<?xml version="1.0" encoding="UTF-8" standalone="no"?>
<!-- Generator: Adobe Illustrator 22.0.1, SVG Export Plug-In . SVG Version: 6.00 Build 0)  -->

<svg
   xmlns:dc="http://purl.org/dc/elements/1.1/"
   xmlns:cc="http://creativecommons.org/ns#"
   xmlns:rdf="http://www.w3.org/1999/02/22-rdf-syntax-ns#"
   xmlns:svg="http://www.w3.org/2000/svg"
   xmlns="http://www.w3.org/2000/svg"
   xmlns:sodipodi="http://sodipodi.sourceforge.net/DTD/sodipodi-0.dtd"
   xmlns:inkscape="http://www.inkscape.org/namespaces/inkscape"
   version="1.1"
   id="Layer_1"
   inkscape:version="0.92.3 (2405546, 2018-03-11)"
   sodipodi:docname="Morena_logo_(Mexico).svg"
   x="0px"
   y="0px"
   viewBox="0 0 1000 1000"
   style="enable-background:new 0 0 1000 1000;"
   xml:space="preserve"><metadata
   id="metadata3789"><rdf:RDF><cc:Work
       rdf:about=""><dc:format>image/svg+xml</dc:format><dc:type
         rdf:resource="http://purl.org/dc/dcmitype/StillImage" /><dc:title></dc:title></cc:Work></rdf:RDF></metadata><defs
   id="defs3787" />
<style
   type="text/css"
   id="style3752">
	.st0{fill:#F9F9F9;}
	.st1{fill:#B5261E;}
</style>
<sodipodi:namedview
   bordercolor="#ffffff"
   borderopacity="0"
   gridtolerance="10"
   guidetolerance="10"
   id="namedview130"
   inkscape:current-layer="Layer_1"
   inkscape:cx="969.33677"
   inkscape:cy="437.42569"
   inkscape:pageopacity="0"
   inkscape:pageshadow="2"
   inkscape:window-height="837"
   inkscape:window-maximized="1"
   inkscape:window-width="1600"
   inkscape:window-x="-8"
   inkscape:window-y="-8"
   inkscape:zoom="0.5"
   objecttolerance="10"
   pagecolor="#ffffff"
   showgrid="false">
	</sodipodi:namedview>
<g
   id="g3733"
   transform="matrix(7.5408022,0,-5.8829066e-5,7.5297748,-3649.7742,-1676.602)">
	<path
   id="path18"
   inkscape:connector-curvature="0"
   class="st0"
   d="m 497.4,222.7 h 106 c 7.3,0 13.3,6 13.3,13.3 v 106.2 c 0,7.3 -6,13.3 -13.3,13.3 h -106 c -7.3,0 -13.3,-6 -13.3,-13.3 V 235.9 c 0.1,-7.2 6,-13.2 13.3,-13.2 z"
   style="fill:#f9f9f9" />
</g>
<g
   id="g3784"
   transform="matrix(0.97638303,0,0,0.95906762,11.880516,20.543959)">
	<path
   id="path75"
   inkscape:connector-curvature="0"
   class="st1"
   d="m 107.8,528.1 c 0,-34.83333 0,-69.66667 0,-104.5 0,-16.1 -5.9,-21.5 -22,-19.8 -5.2,0.6 -10.1,1.7 -15.7,2.6 V 528 H 24 V 371.7 c 10.1,-1.4 20.5,-2.7 31,-4.1 2.8,3.4 5.6,6.6 8.7,10.1 12.4,-5.6 24.7,-10.6 38.4,-10.1 13.4,0.5 26,3.2 37.2,11.5 21.52534,-10.20691 41.76116,-13.44499 63.7,-9.6 18.9,3.4 28.8,16.3 32.3,34.6 1,5.5 1.5,11.3 1.5,16.8 0.1,34 0.1,68 0.1,102 0,1.7 -0.2,3.3 -0.3,5.3 H 190.5 V 521.3 425 c 0,-3.9 -0.1,-8 -1,-11.8 -1.5,-6.4 -5,-9.6 -11.5,-9.5 -7.9,0.1 -15.7,1.2 -24.2,2.1 v 122.4 c -15.5,-0.1 -30.3,-0.1 -46,-0.1 z"
   style="fill:#b5261e"
   sodipodi:nodetypes="ccccccccccccccscccsccccc" />
	<path
   id="path77"
   inkscape:connector-curvature="0"
   class="st1"
   d="m 676.2,371.3 c 10.7,-1.4 21.1,-2.7 31.4,-3.9 2.9,3.3 5.7,6.4 7.7,8.8 10.5,-2.8 20.2,-6.2 30.2,-7.8 19,-3 36.6,1 51.1,14.4 10.6,9.7 16.6,21.9 17.9,36 0.3,3.9 0.6,8 0.6,11.9 0,32.4 0,64.8 0,97.2 h -47 c -0.0163,-34.34254 -0.008,-70.031 -0.1,-99.6 -0.0811,-10.95368 -2.1013,-22.00625 -13.2,-24.2 -10.8,-2 -21.5,-0.1 -32.7,2.1 v 121.9 h -46 c 0.1,-52.4 0.1,-104.2 0.1,-156.8 z"
   style="fill:#b5261e"
   sodipodi:nodetypes="ccccccccccccccc" />
	<path
   id="path79"
   inkscape:connector-curvature="0"
   class="st1"
   d="m 857.7,411.3 c -3.7,-9.3 -7.2,-18.2 -11,-27.5 0.7,-0.5 1.2,-1.1 2,-1.4 15.4,-6 30.9,-11.6 47.2,-14.3 19.5,-3.2 36.9,2 51.8,14.9 10.6,9.1 15.3,21.2 15.3,34.9 0.0918,27.62125 0,51.22534 0,76 4.5,0.2 8.4,0.3 13,0.6 2,8.2 3.9,16.4 6.1,25.2 -8.6,4.5 -17.7,7.2 -26.8,10 -16.03711,3.03401 -25.13718,-2.98707 -33.8,-10.8 -10,5.5 -20.6,10 -32,11.7 -19,2.9 -35.3,-2.9 -47.5,-17.7 -11.8,-14.1 -14.4,-30.5 -7.8,-47.5 7.2,-18.7 22.2,-28.5 41.6,-30.6 9.8,-1 19.9,0.2 30.1,0.5 3.5,0.1 7,0.6 11.3,0.9 0.5,-7.4 1.1,-14.5 -0.5,-21.4 -2.1,-8.2 -11.4,-13.6 -20.9,-12.1 -13.79768,1.4611 -26.6553,6.43529 -38.1,8.6 z m 59.4,53.8 c -8.3,0 -16.3,-0.2 -24.4,0 -8.4,0.2 -14.4,6.2 -14.8,14 -0.2,8.7 5.9,16.4 14,17.1 8.6,0.7 16.8,-1 25.5,-2.8 -0.0101,-9.17795 0.19863,-19.71418 -0.3,-28.3 z"
   style="fill:#b5261e"
   sodipodi:nodetypes="cccccccccccccccccccccccccc" />
	<path
   id="path81"
   inkscape:connector-curvature="0"
   class="st1"
   d="m 335.7,531.6 c -38.9,0 -67.7,-24.4 -74,-62.7 -2.7,-16.4 -2.4,-32.8 2.6,-48.8 11.6,-38.1 44.2,-55.9 81,-51.8 42,4.5 61.9,35.9 65.8,67.6 1.7,13 1.1,25.8 -2,38.5 -8.7,35.9 -36.2,57.2 -73.4,57.2 z m 29.6,-82.2 c -0.5,-11.9 -0.9,-23.9 -7,-34.6 -9.9,-17.8 -34.4,-18 -44.5,-0.5 -1.9,3.2 -3.3,6.8 -4.3,10.2 -3.8,13.6 -4.1,27.7 -1.7,41.4 1.1,6.9 3.6,13.6 6.8,19.8 4.3,8.4 12.1,12.3 21.6,12.2 11.4,-0.1 18.7,-6 23.2,-15.9 5,-10.1 5.5,-21.4 5.9,-32.6 z"
   style="fill:#b5261e" />
	<path
   id="path83"
   inkscape:connector-curvature="0"
   class="st1"
   d="m 653.5,461.8 c -28.7,-0.6 -57.4,-1.1 -86.2,-1.9 0,22.5 14.5,37.6 35.9,36.3 16.06475,-1.32594 31.29992,-4.5857 44.9,-7.2 1.1,9.6 2.4,18.7 3.5,27.9 -13.6,7.1 -27.6,11.2 -42,13.4 -11.3,1.8 -22.4,2.9 -33.7,0.7 -22.6,-4.3 -38.4,-17.9 -47.2,-38.9 -11.4,-27.4 -11.6,-55.5 -0.9,-82.9 12.3,-31.9 41,-43.9 72,-41.1 4.8,0.5 9.6,1.1 14.2,2.5 23.4,6.4 36.9,22.5 41.9,45.7 2.88404,15.57674 4.51557,32.77606 -2.4,45.5 z m -40.9,-31.7 c -0.1,-9 -2.8,-16.8 -7.2,-22.1 -7.8,-9.3 -24.7,-9 -31.8,0.8 -4.5,6.2 -5.7,13.4 -6,21.4 15.3,-0.1 29.9,-0.1 45,-0.1 z"
   style="fill:#b5261e"
   sodipodi:nodetypes="cccccccccccccccccc" />
	<path
   id="path85"
   inkscape:connector-curvature="0"
   class="st1"
   d="m 476.2,528.4 h -45.6 v -157 c 10.2,-1.2 20.6,-2.5 31.3,-3.7 2.8,4.3 5.6,8.7 8.7,13.4 17.6695,-10.71415 31.99261,-14.51003 49.5,-17.4 -2,15 -3.9,29.2 -5.9,43.1 -13,1.8 -25.3,3.5 -38,5.2 z"
   style="fill:#b5261e"
   sodipodi:nodetypes="ccccccccc" />
	<path
   id="path87"
   inkscape:connector-curvature="0"
   d="m 748.1,580.9 c -3.4,12.8 -6.8,25.7 -10.1,38.7 -5.5,0 -10.6,0 -16.2,0 -3.5,-13 -7,-25.9 -10.5,-38.9 -0.2,0 -0.6,0 -0.8,0.1 -0.6,13 -1,26 -1.7,39.6 -4.3,0 -8.6,0 -13.5,0 0.8,-19.8 1.7,-39.8 2.5,-60.1 7.1,0 13.9,0 21.4,0 3.5,13.7 7,27.7 10.6,41.7 0.3,0 0.7,0.1 1,0.1 3.5,-13.7 7,-27.7 10.6,-41.8 6.8,0 13.3,0 21.1,0 0.8,19.9 1.7,40.1 2.5,60.4 -4.8,0 -8.9,0 -13.7,0 -0.6,-13.3 -1.1,-26.5 -1.8,-39.8 -0.8,0 -1,0 -1.4,0 z" />
	<path
   id="path89"
   inkscape:connector-curvature="0"
   sodipodi:nodetypes="cccccccccccccc"
   d="m 596.6,576.6 v -21.7 h 12.5 v 65 c -7.5,2 -7.5,2 -10.8,0.1 -23.44012,5.74036 -32.73708,-12.00853 -27.6,-31.4 1.2875,-5.0875 10.9,-13.5 21.5,-12.6 2.35,0.425 2.3,0.4 4.4,0.6 z m 0.4,33.8 v -11.9 -11.4 c -10.4,-2.8 -14.2,-0.1 -14.6,9.5 -0.1,1.7 0,3.3 0.1,5 0.6,9.5 3.8,11.6 14.5,8.8 z" />
	<path
   id="path91"
   inkscape:connector-curvature="0"
   sodipodi:nodetypes="cccccccccccccc"
   d="m 238.1,622 v 18.1 h -12.6 v -63.2 c 3.7,-1.1 7.5,-2.9 11,0.9 16.7,-6.4 26.9,1.7 28.8,12.4 0.5,5.4 0.5,11.3 -0.3,16.7 -1.4,5.4 -4.5,9.8 -9.9,12.1 -5,2.4 -11,2.5 -17,3 z m 0.1,-11.5 c 5,0.5 9.3,1.2 12.4,-3.6 2.9,-5 2.5,-15.1 -1,-18.9 -3.6,-3.9 -7.4,-1.4 -11.4,-1.1 z" />
	<path
   id="path93"
   inkscape:connector-curvature="0"
   d="m 415.3,577.8 c 2.9,-0.8 5.1,-1.7 7.2,-2 10.8,-2 19.8,4.6 20.5,15.7 0.5,9.6 0.1,19.1 0.1,29.2 -4.5,0 -8.8,0 -13.4,0 0,-8.7 0,-16.9 0,-25.2 0,-9.7 -2.8,-11.7 -12.7,-8.3 0,10.8 0,21.9 0,33.6 -4.5,0 -8.8,0 -13.3,0 0,-14.6 0,-28.9 0,-43.6 4,-0.9 8.1,-3.4 11.6,0.6 z" />
	<path
   id="path95"
   inkscape:connector-curvature="0"
   d="m 534.8,610.2 c 1.4,2.6 2.8,5.2 4.4,8.1 -6.4,2.7 -11.8,6.1 -17.7,0.6 -2.5,0.8 -4.6,1.9 -7,2.5 -10.5,2.7 -19.5,-4.4 -18.7,-14.6 0.6,-7 6.6,-12.2 14.9,-12.3 2.8,-0.1 5.7,0.2 8.6,0.3 1.5,-7.8 -0.7,-10 -7.8,-8.7 -2.5,0.5 -5,1 -8,1.7 -0.9,-2.4 -2,-4.6 -3.2,-7.8 7.2,-2.5 13.6,-6 21.3,-3.8 7.7,2.1 11.6,6.8 11.8,14.8 0.1,6.4 0,12.8 0,19.4 0.5,-0.2 0.9,-0.2 1.4,-0.2 z m -15,-7 c -3.7,0.1 -7.4,-1.4 -9.8,2.1 -0.7,1 -0.6,3.5 0.2,4.5 2.7,3.3 6.2,2 9.6,1 0,-2.5 0,-4.9 0,-7.6 z" />
	<path
   id="path97"
   inkscape:connector-curvature="0"
   d="m 391,610.3 c 1.4,2.6 2.8,5.2 4.4,8 -6.4,3 -11.9,5.9 -17.7,0.6 -2.3,0.8 -4.2,1.8 -6.4,2.4 -5.3,1.4 -10.4,1 -14.6,-2.9 -4.2,-3.8 -5.7,-8.7 -3.9,-14.1 2,-6.3 7,-9.1 13.2,-9.7 3.3,-0.3 6.5,0 9.8,0 1.1,-7.1 -1,-9.6 -7.5,-8.4 -2.7,0.5 -5.3,1.1 -8.4,1.9 -1,-2.4 -2,-4.8 -3.4,-7.8 7.4,-2.5 14.2,-6.2 22,-3.7 7.3,2.4 11,6.9 11.2,14.6 0.1,6.4 0,13 0,19.4 0.4,-0.3 0.8,-0.3 1.3,-0.3 z m -14.9,-6.9 c -3.7,-0.2 -7.4,-1.5 -9.9,1.9 -0.7,1 -0.6,3.5 0.1,4.5 2.6,3.5 6.2,1.8 9.8,1.4 0,-2.8 0,-5.2 0,-7.8 z" />
	<path
   id="path99"
   inkscape:connector-curvature="0"
   d="m 90.2,619.4 c -5.1,0.9 -8.9,2.3 -12.7,2.4 C 70.7,622 65,616.7 64,610.2 c -1,-6.5 2.8,-13.1 9.7,-14.8 4.5,-1 9.3,-0.8 14.2,-1.1 1,-7.1 -1.1,-9.6 -7.7,-8.3 -2.7,0.5 -5.3,1.1 -8.4,1.9 -1,-2.5 -2,-4.8 -3.4,-7.8 7.3,-2.5 13.7,-6 21.4,-3.8 7.9,2.1 11.6,6.9 11.7,14.9 0.1,3.4 0,6.6 0,10 0,3.2 0,6.2 0,9.2 4.2,2.5 4.2,2.5 4.8,8.7 -5.6,2 -10.9,5.2 -16.1,0.3 z m -2.1,-8.1 c 0,-2.8 0,-5.3 0,-8.1 -2.6,0 -5,-0.6 -6.9,0.1 -1.5,0.6 -3.4,2.6 -3.6,4.1 -0.5,2.6 1.4,4.2 4.1,4.3 2.1,0.1 4.1,-0.3 6.4,-0.4 z" />
	<path
   id="path101"
   inkscape:connector-curvature="0"
   sodipodi:nodetypes="ccccccccccc"
   d="m 978.7,598.5 c 0.3,19.3 -15.5,27 -29.8,21.9 -9.8,-3.5 -15.1,-15.2 -12.7,-27.1 2.4,-11.9 11.6,-18.9 23.5,-17.8 11.6,1.1 18.9,10 19,23 z m -27.7,10 c 2.7,5.5 9.7,5.4 12.4,-0.1 2.9,-6.1 2.8,-12.5 0.2,-18.8 -1,-2.7 -3.3,-4.2 -6.3,-4.3 -3.3,0 -5.9,0.9 -6.8,4.4 -2.71172,6.29002 -2.49856,13.02113 0.5,18.8 z" />
	<path
   id="path103"
   inkscape:connector-curvature="0"
   d="m 312.3,601.8 c -7.9,0 -15.9,0 -24,0 0.9,7.4 3.7,10.1 10.4,9.9 3.8,-0.1 7.7,-0.9 12.2,-1.4 0.3,2.6 0.7,4.6 1.1,7.1 -7.1,4.1 -14.8,5.4 -22.4,4.1 -6.2,-1 -10.2,-5.4 -12.6,-11.2 -2.9,-7.4 -3,-15.1 -0.3,-22.5 3.8,-10.5 15.3,-15.2 26.2,-11.2 9,3.5 13.3,14.7 9.4,25.2 z m -11.9,-9.1 c -0.9,-6.1 -2.5,-7.8 -6.4,-7.5 -3.7,0.2 -5,1.9 -5.3,7.5 4,0 7.9,0 11.7,0 z" />
	<path
   id="path105"
   inkscape:connector-curvature="0"
   d="m 174.7,601.8 c -8.2,0 -16.1,0 -24,0 0.5,7 3.3,10 9.5,9.9 4.1,-0.1 8.2,-0.8 12.8,-1.4 0.5,2.6 0.8,5 1.1,7.2 -6.9,3.7 -13.7,5 -21,4.1 -6.9,-0.7 -11.4,-5.1 -14,-11.2 -3,-7.1 -3.2,-14.6 -0.7,-22 3.5,-10.7 14.5,-15.8 25.8,-12.1 9.6,3.4 14.1,13.9 10.5,25.5 z m -24.3,-9.4 c 4.5,0 8.4,0 12.5,0 -1.9,-6.3 -3.2,-7.4 -6.9,-7.1 -4.3,0.4 -5.1,3.5 -5.6,7.1 z" />
	<path
   id="path107"
   inkscape:connector-curvature="0"
   d="m 655.8,610.3 c 0.3,2.6 0.6,4.6 0.9,7.2 -7.3,4.1 -15.1,5.7 -22.9,3.6 -3.6,-0.9 -7.3,-3.9 -9.8,-7.1 -5.9,-7.4 -5.7,-22.2 -0.6,-30.3 5.2,-8.1 17,-10.9 26.1,-6.2 7.8,4.1 11.4,14.9 7.4,24.2 -7.8,0 -15.9,0 -24.1,0 1.2,7.8 3.9,10.2 11.3,9.9 3.7,-0.2 7.3,-0.8 11.7,-1.3 z m -22.6,-17.6 c 3.8,0 7.7,0 11.7,0 -0.5,-5.7 -1.9,-7.4 -5.5,-7.5 -3.9,-0.1 -5.4,1.6 -6.2,7.5 z" />
	<path
   id="path109"
   inkscape:connector-curvature="0"
   d="m 809.9,610.4 c 0.3,2.5 0.6,4.6 0.8,7.1 -7.1,4.1 -14.8,5.2 -22.4,3.9 -4.4,-0.7 -8,-3.5 -10.5,-7.3 -5.4,-8 -5.5,-22.4 -0.3,-30.4 5.3,-8.2 16.9,-10.8 26.1,-6.1 7.9,4.1 11.3,15.1 7.3,24.1 -7.7,0 -15.7,0 -23.5,0 0,6.6 2.8,10 8.9,10 4.4,0 8.7,-0.8 13.6,-1.3 z M 799,592.7 c -0.6,-5.7 -2,-7.4 -5.6,-7.5 -3.9,-0.1 -5.4,1.7 -6.1,7.5 4.1,0 7.8,0 11.7,0 z" />
	<path
   id="path111"
   inkscape:connector-curvature="0"
   d="m 830.8,620.8 c -4.8,0 -9,0 -14.5,0 5.6,-8 10.7,-15.1 16,-22.5 -5.1,-7 -9.9,-13.9 -15.4,-21.6 5.6,0 9.9,0 14.8,0 2.8,3.9 5.7,8.2 9,13 3.3,-4.6 6.2,-8.7 9.1,-13 4.4,0 9,0 14.5,0 -5.1,7.1 -9.7,13.6 -14.8,21 5.7,7.3 11.5,15 17.8,23.1 -5.4,0 -9.8,0 -14.9,0 -3.5,-4.6 -7.1,-9.6 -11.3,-15.1 -3.3,5.3 -6.6,9.9 -10.3,15.1 z" />
	<path
   id="path113"
   inkscape:connector-curvature="0"
   d="m 57.3,609.3 c 0,4.2 0,7.4 0,11.3 -11,0 -22,0 -33.2,0 0,-20 0,-40.2 0,-60.5 4.4,0 8.6,0 13.1,0 0,16.4 0,32.6 0,49.2 6.8,0 13.3,0 20.1,0 z" />
	<path
   id="path115"
   inkscape:connector-curvature="0"
   d="m 473.1,585.3 c -6.9,0 -12.3,0 -18,0 0,-2.9 0,-5.6 0,-8.6 10.8,0 21.6,0 32.3,0 1.4,4.8 0.6,8.7 -2.5,12.5 -5.5,6.8 -10.6,13.9 -16.7,21.9 7.1,0 13.1,0 19.5,0 0,3.6 0,6.4 0,9.6 -11.4,0 -22.5,0 -34,0 -1.1,-5 -0.7,-9.1 2.7,-13.3 5.6,-6.7 10.5,-14 16.7,-22.1 z" />
	<path
   id="path117"
   inkscape:connector-curvature="0"
   d="m 185.4,609.6 c 8.61596,2.60208 26.19528,1.39162 13.1,-5 -2.6,-1.2 -5.5,-2.1 -8.1,-3.4 -5.3,-2.6 -7.5,-6.9 -7.1,-12.7 0.4,-5.8 3.9,-9.9 9.8,-11.7 6.4,-2 12.7,-1.1 19.4,1.5 -0.3,2.6 -0.8,5.2 -1.1,8 -7.61916,0.33356 -23.82303,0.88368 -11.3,5.9 2.7,1.1 5.5,2 8.2,3.3 4.6,2.1 7.8,5.5 7.8,10.9 0,6 -2.5,10.5 -7.9,13.2 -8,3.8 -15.8,2.4 -24.1,-0.3 0.4,-3.4 0.9,-6.4 1.3,-9.7 z"
   sodipodi:nodetypes="cccscccccsccc" />
	<path
   id="path119"
   inkscape:connector-curvature="0"
   d="m 929.5,610.9 c 0.3,2.3 0.7,4.2 1.1,7.1 -4.4,1.2 -8.7,3 -13.1,3.5 -11.4,1.1 -19.3,-5.4 -20.8,-16.7 0,-0.5 -0.1,-0.8 -0.1,-1.2 -2.3,-19.9 9.7,-31 29.4,-27.3 0.9,0.2 2,0.3 3.5,0.7 -0.5,2.9 -0.9,5.4 -1.4,8.3 -3.7,0 -7,0.1 -10.2,0 -11.15505,3.97055 -11.27603,26.39926 1.6,26.6 3,-0.1 6.1,-0.7 10,-1 z"
   sodipodi:nodetypes="ccccccccccc" />
	<path
   id="path121"
   inkscape:connector-curvature="0"
   d="m 337,588.4 c 0,10.9 0,21.6 0,32.4 -4.4,0 -8.3,0 -12.5,0 0,-14.8 0,-28.9 0,-43.9 2.5,-0.5 5.1,-1 7.7,-1.5 1.2,1.1 2.5,2.3 3.4,3.2 4.4,-1.5 8.7,-2.9 13.9,-4.6 -0.6,4.6 -1,8.3 -1.7,12.4 -3.2,0.4 -6.6,1.2 -10.8,2 z" />
	<path
   id="path123"
   inkscape:connector-curvature="0"
   d="m 874.8,588.5 c -2.1,-0.8 -3.6,-1.5 -5.3,-2.1 0,-2.5 0,-5 0,-7.8 5.9,-0.3 11.4,-0.7 17,-1.1 0.2,1.1 0.5,2 0.5,2.8 0,13.3 0,26.6 0,40.5 -4.1,0 -8,0 -12.3,0 0.1,-10.7 0.1,-21.4 0.1,-32.3 z" />
	<path
   id="path125"
   inkscape:connector-curvature="0"
   d="m 799.7,573.9 c -3.4,0 -6.4,0 -10,0 1.9,-5.1 3.5,-9.7 5.3,-14.5 3.9,0 7.9,0 12.6,0 -2.8,5.1 -5.4,9.8 -7.9,14.5 z" />
	<path
   id="path127"
   inkscape:connector-curvature="0"
   d="m 880,559.1 c 3.8,0 6.8,2.9 7,6.5 0.1,3.8 -3.2,7.2 -7,7.2 -3.9,0 -7.1,-3.4 -6.9,-7.2 0.2,-3.8 3.2,-6.5 6.9,-6.5 z" />
</g>
</svg>