<?xml version="1.0" encoding="UTF-8" standalone="no"?>
<!-- Created with Inkscape (http://www.inkscape.org/) -->

<svg
   xmlns:dc="http://purl.org/dc/elements/1.1/"
   xmlns:cc="http://creativecommons.org/ns#"
   xmlns:rdf="http://www.w3.org/1999/02/22-rdf-syntax-ns#"
   xmlns:svg="http://www.w3.org/2000/svg"
   xmlns="http://www.w3.org/2000/svg"
   xmlns:sodipodi="http://sodipodi.sourceforge.net/DTD/sodipodi-0.dtd"
   xmlns:inkscape="http://www.inkscape.org/namespaces/inkscape"
   width="300"
   height="300"
   id="svg3474"
   version="1.1"
   inkscape:version="0.48.0 r9654"
   sodipodi:docname="PRD logo (Mexico).svg">
  <defs
     id="defs3476">
    <clipPath
       clipPathUnits="userSpaceOnUse"
       id="clipPath3194">
      <path
         inkscape:connector-curvature="0"
         d="m 0,0 382.677,0 0,586.772 L 0,586.772 0,0 z"
         id="path3196" />
    </clipPath>
    <clipPath
       clipPathUnits="userSpaceOnUse"
       id="clipPath3340">
      <path
         inkscape:connector-curvature="0"
         d="m 0,0 382.677,0 0,586.772 L 0,586.772 0,0 z"
         id="path3342" />
    </clipPath>
  </defs>
  <sodipodi:namedview
     id="base"
     pagecolor="#ffffff"
     bordercolor="#666666"
     borderopacity="1.0"
     inkscape:pageopacity="0.0"
     inkscape:pageshadow="2"
     inkscape:zoom="3.0366667"
     inkscape:cx="86.608123"
     inkscape:cy="150"
     inkscape:document-units="px"
     inkscape:current-layer="layer1"
     showgrid="false"
     inkscape:window-width="1600"
     inkscape:window-height="1127"
     inkscape:window-x="0"
     inkscape:window-y="24"
     inkscape:window-maximized="1" />
  <metadata
     id="metadata3479">
    <rdf:RDF>
      <cc:Work
         rdf:about="">
        <dc:format>image/svg+xml</dc:format>
        <dc:type
           rdf:resource="http://purl.org/dc/dcmitype/StillImage" />
        <dc:title></dc:title>
      </cc:Work>
    </rdf:RDF>
  </metadata>
  <g
     inkscape:label="Layer 1"
     inkscape:groupmode="layer"
     id="layer1"
     transform="translate(0,-752.36218)">
    <g
       transform="matrix(1.3375018,0,0,-1.3375018,-96.521201,1345.5312)"
       id="g3423">
      <g
         id="g3190">
        <g
           clip-path="url(#clipPath3194)"
           id="g3192">
          <g
             transform="translate(289.9906,233.8843)"
             id="g3198">
            <path
               inkscape:connector-curvature="0"
               id="path3200"
               style="fill:#ffcb01;fill-opacity:1;fill-rule:nonzero;stroke:none"
               d="m 0,0 c 0,-6.048 -4.91,-10.952 -10.969,-10.952 l -189.538,0 c -6.06,0 -10.971,4.904 -10.971,10.952 l 0,194.757 c 0,6.051 4.911,10.954 10.971,10.954 l 189.538,0 C -4.91,205.711 0,200.806 0,194.757 L 0,0 z" />
          </g>
          <g
             transform="translate(289.9906,233.8843)"
             id="g3202">
            <path
               inkscape:connector-curvature="0"
               id="path3204"
               style="fill:#000000;fill-opacity:1;fill-rule:nonzero;stroke:none"
               d="m 0,0 -2.608,0 c 0,-2.311 -0.932,-4.381 -2.447,-5.9 -1.521,-1.513 -3.595,-2.442 -5.914,-2.444 l -189.538,0 c -2.319,0.002 -4.393,0.931 -5.915,2.444 -1.517,1.519 -2.445,3.589 -2.447,5.9 l 0,194.757 c 0.002,2.312 0.93,4.381 2.447,5.9 1.522,1.515 3.596,2.444 5.915,2.445 l 189.538,0 c 2.319,-0.001 4.393,-0.93 5.914,-2.445 1.515,-1.519 2.447,-3.588 2.447,-5.9 L -2.608,0 0,0 l 2.61,0 0,194.757 c 0.002,3.739 -1.525,7.146 -3.978,9.592 -2.451,2.45 -5.862,3.974 -9.601,3.971 l -189.538,0 c -3.741,0.003 -7.152,-1.52 -9.601,-3.971 -2.453,-2.446 -3.98,-5.853 -3.979,-9.592 l 0,-194.757 c -0.001,-3.74 1.526,-7.146 3.979,-9.592 2.449,-2.449 5.86,-3.972 9.601,-3.97 l 189.538,0 c 3.739,-0.002 7.15,1.521 9.601,3.97 C 1.085,-7.146 2.612,-3.738 2.61,0 L 0,0 z" />
          </g>
          <g
             transform="translate(184.4861,392.2901)"
             id="g3206">
            <path
               inkscape:connector-curvature="0"
               id="path3208"
               style="fill:#000000;fill-opacity:1;fill-rule:nonzero;stroke:none"
               d="m 0,0 c -18.247,0 -33.039,-14.786 -33.039,-33.03 0,-18.243 14.792,-33.034 33.039,-33.034 18.237,0 33.026,14.792 33.026,33.034 C 33.026,-14.786 18.237,0 0,0 m 0,-54.749 c -11.998,0 -21.724,9.727 -21.724,21.719 0,11.994 9.726,21.716 21.724,21.716 11.988,0 21.714,-9.722 21.714,-21.716 0,-11.992 -9.726,-21.719 -21.714,-21.719" />
          </g>
          <g
             transform="translate(184.4861,392.5095)"
             id="g3210" />
        </g>
      </g>
      <path
         inkscape:connector-curvature="0"
         id="path3214"
         style="fill:#000000;fill-opacity:1;fill-rule:nonzero;stroke:none"
         d="m 190.772,396.284 -12.28,0 0,25.706 12.28,0 0,-25.706 z" />
      <path
         inkscape:connector-curvature="0"
         id="path3220"
         style="fill:#000000;fill-opacity:1;fill-rule:nonzero;stroke:none"
         d="m 190.772,296.622 -12.28,0 0,25.7 12.28,0 0,-25.7 z" />
      <g
         transform="translate(221.5399,365.0738)"
         id="g3226">
        <path
           inkscape:connector-curvature="0"
           id="path3228"
           style="fill:#000000;fill-opacity:1;fill-rule:nonzero;stroke:none"
           d="m 0,0 25.711,-0.001 0,-12.283 L 0,-12.285 0,0 z" />
      </g>
      <path
         inkscape:connector-curvature="0"
         id="path3234"
         style="fill:#000000;fill-opacity:1;fill-rule:nonzero;stroke:none"
         d="m 121.874,365.074 25.702,0 0,-12.286 -25.702,0 0,12.286 z" />
      <g
         transform="translate(215.0955,381.0269)"
         id="g3240">
        <path
           inkscape:connector-curvature="0"
           id="path3242"
           style="fill:#000000;fill-opacity:1;fill-rule:nonzero;stroke:none"
           d="M 0,0 -8.685,8.686 9.491,26.86 18.171,18.178 0,0 z" />
      </g>
      <g
         transform="translate(144.6177,310.5546)"
         id="g3248">
        <path
           inkscape:connector-curvature="0"
           id="path3250"
           style="fill:#000000;fill-opacity:1;fill-rule:nonzero;stroke:none"
           d="M 0,0 -8.684,8.684 9.491,26.85 18.176,18.169 0,0 z" />
      </g>
      <g
         transform="translate(206.3679,328.8809)"
         id="g3256">
        <path
           inkscape:connector-curvature="0"
           id="path3258"
           style="fill:#000000;fill-opacity:1;fill-rule:nonzero;stroke:none"
           d="M 0,0 8.689,8.683 26.864,-9.485 18.176,-18.165 0,0 z" />
      </g>
      <g
         transform="translate(135.8904,399.3574)"
         id="g3264">
        <path
           inkscape:connector-curvature="0"
           id="path3266"
           style="fill:#000000;fill-opacity:1;fill-rule:nonzero;stroke:none"
           d="M 0,0 8.684,8.685 26.859,-9.489 18.176,-18.173 0,0 z" />
      </g>
      <g
         transform="translate(204.412,391.126)"
         id="g3272">
        <path
           inkscape:connector-curvature="0"
           id="path3274"
           style="fill:#000000;fill-opacity:1;fill-rule:nonzero;stroke:none"
           d="M 0,0 -11.324,4.762 2.743,38.182 14.066,33.425 0,0 z" />
      </g>
      <g
         transform="translate(161.4777,289.1319)"
         id="g3280">
        <path
           inkscape:connector-curvature="0"
           id="path3282"
           style="fill:#000000;fill-opacity:1;fill-rule:nonzero;stroke:none"
           d="M 0,0 -11.322,4.762 2.922,38.576 14.233,33.821 0,0 z" />
      </g>
      <g
         transform="translate(176.1675,395.8188)"
         id="g3288">
        <path
           inkscape:connector-curvature="0"
           id="path3290"
           style="fill:#000000;fill-opacity:1;fill-rule:nonzero;stroke:none"
           d="M 0,0 -11.371,-4.635 -25.059,28.938 -13.687,33.577 0,0 z" />
      </g>
      <g
         transform="translate(217.9292,293.3408)"
         id="g3296">
        <path
           inkscape:connector-curvature="0"
           id="path3298"
           style="fill:#000000;fill-opacity:1;fill-rule:nonzero;stroke:none"
           d="M 0,0 -11.37,-4.635 -25.223,29.343 -13.851,33.976 0,0 z" />
      </g>
      <g
         transform="translate(220.847,367.8011)"
         id="g3304">
        <path
           inkscape:connector-curvature="0"
           id="path3306"
           style="fill:#000000;fill-opacity:1;fill-rule:nonzero;stroke:none"
           d="M 0,0 -4.639,11.375 28.941,25.061 33.58,13.685 0,0 z" />
      </g>
      <g
         transform="translate(118.3646,326.0383)"
         id="g3312">
        <path
           inkscape:connector-curvature="0"
           id="path3314"
           style="fill:#000000;fill-opacity:1;fill-rule:nonzero;stroke:none"
           d="M 0,0 -4.638,11.374 29.344,25.219 33.979,13.846 0,0 z" />
      </g>
      <g
         transform="translate(152.8127,379.6293)"
         id="g3320">
        <path
           inkscape:connector-curvature="0"
           id="path3322"
           style="fill:#000000;fill-opacity:1;fill-rule:nonzero;stroke:none"
           d="M 0,0 -4.764,-11.324 -38.186,2.743 -33.421,14.067 0,0 z" />
      </g>
      <g
         transform="translate(254.814,336.6916)"
         id="g3328">
        <path
           inkscape:connector-curvature="0"
           id="path3330"
           style="fill:#000000;fill-opacity:1;fill-rule:nonzero;stroke:none"
           d="M 0,0 -4.77,-11.316 -38.589,2.914 -33.825,14.239 0,0 z" />
      </g>
      <g
         id="g3336">
        <g
           clip-path="url(#clipPath3340)"
           id="g3338">
          <g
             transform="translate(123.5685,231.4227)"
             id="g3344">
            <path
               inkscape:connector-curvature="0"
               id="path3346"
               style="fill:#000000;fill-opacity:1;fill-rule:nonzero;stroke:none"
               d="m 0,0 0.026,53.044 21.418,0.065 C 38.345,53.901 47.617,16.725 19.865,14.563 l -4.876,12.088 c 13.815,1.487 8.82,15.788 -1.171,13.851 L 13.922,0 0,0 z" />
          </g>
          <g
             transform="translate(123.5685,231.4227)"
             id="g3348" />
          <g
             transform="translate(163.4915,231.5002)"
             id="g3352">
            <path
               inkscape:connector-curvature="0"
               id="path3354"
               style="fill:#000000;fill-opacity:1;fill-rule:nonzero;stroke:none"
               d="m 0,0 0.023,53.051 21.418,0.062 c 14.287,1.05 24.577,-21.706 8.736,-31.142 L 39.053,-0.204 23.799,-0.226 11.957,27.8 C 26.14,24.497 26.018,42.568 13.929,40.846 L 13.918,0 0,0 z" />
          </g>
          <g
             transform="translate(163.4915,231.5002)"
             id="g3356" />
          <g
             transform="translate(205.6666,231.5002)"
             id="g3360">
            <path
               inkscape:connector-curvature="0"
               id="path3362"
               style="fill:#000000;fill-opacity:1;fill-rule:nonzero;stroke:none"
               d="m 0,0 0.026,53.051 13.971,0 C 46.182,51.075 47.05,8.529 20.822,-0.204 l -5.715,13.792 c 15.785,3.576 9.984,26.023 -1.11,24.297 L 13.928,0 0,0 z" />
          </g>
          <g
             transform="translate(205.6666,231.5002)"
             id="g3364" />
        </g>
      </g>
    </g>
  </g>
</svg>
