<?xml version="1.0" encoding="UTF-8" standalone="no"?>
<!-- Created with Inkscape (http://www.inkscape.org/) -->

<svg
   xmlns:dc="http://purl.org/dc/elements/1.1/"
   xmlns:cc="http://creativecommons.org/ns#"
   xmlns:rdf="http://www.w3.org/1999/02/22-rdf-syntax-ns#"
   xmlns:svg="http://www.w3.org/2000/svg"
   xmlns="http://www.w3.org/2000/svg"
   xmlns:sodipodi="http://sodipodi.sourceforge.net/DTD/sodipodi-0.dtd"
   xmlns:inkscape="http://www.inkscape.org/namespaces/inkscape"
   width="469.34897"
   height="470.12198"
   id="svg4158"
   version="1.1"
   inkscape:version="0.47 r22583"
   sodipodi:docname="Documento nuevo 10">
  <defs
     id="defs4160">
    <inkscape:perspective
       sodipodi:type="inkscape:persp3d"
       inkscape:vp_x="0 : 526.18109 : 1"
       inkscape:vp_y="0 : 1000 : 0"
       inkscape:vp_z="744.09448 : 526.18109 : 1"
       inkscape:persp3d-origin="372.04724 : 350.78739 : 1"
       id="perspective4166" />
    <inkscape:perspective
       id="perspective4144"
       inkscape:persp3d-origin="0.5 : 0.33333333 : 1"
       inkscape:vp_z="1 : 0.5 : 1"
       inkscape:vp_y="0 : 1000 : 0"
       inkscape:vp_x="0 : 0.5 : 1"
       sodipodi:type="inkscape:persp3d" />
  </defs>
  <sodipodi:namedview
     id="base"
     pagecolor="#ffffff"
     bordercolor="#666666"
     borderopacity="1.0"
     inkscape:pageopacity="0.0"
     inkscape:pageshadow="2"
     inkscape:zoom="0.35"
     inkscape:cx="670.38877"
     inkscape:cy="9.3466938"
     inkscape:document-units="px"
     inkscape:current-layer="layer1"
     showgrid="false"
     inkscape:window-width="550"
     inkscape:window-height="467"
     inkscape:window-x="100"
     inkscape:window-y="100"
     inkscape:window-maximized="0" />
  <metadata
     id="metadata4163">
    <rdf:RDF>
      <cc:Work
         rdf:about="">
        <dc:format>image/svg+xml</dc:format>
        <dc:type
           rdf:resource="http://purl.org/dc/dcmitype/StillImage" />
        <dc:title></dc:title>
      </cc:Work>
    </rdf:RDF>
  </metadata>
  <g
     inkscape:label="Capa 1"
     inkscape:groupmode="layer"
     id="layer1"
     transform="translate(320.38877,-71.586913)">
    <g
       transform="matrix(3.5433071,0,0,3.5433071,-840.22335,-740.25942)"
       style="fill-rule:evenodd"
       id="g4125">
      <path
         class="fil16 str0"
         d="m 159.96028,229.12108 105.95764,0 c 7.2822,0 13.25166,5.96868 13.25166,13.25141 l 0,106.17578 c 0,7.28299 -5.96946,13.25167 -13.25166,13.25167 l -105.95764,0 c -7.28273,7.8e-4 -13.25141,-5.96816 -13.25141,-13.25063 l 0,-106.17682 c 0,-7.28273 5.96868,-13.25141 13.25141,-13.25141 z"
         id="path108"
         style="fill:#aaa9a9;stroke:none" />
      <path
         class="fil17 str0"
         d="m 231.37408,240.94702 c 22.98966,7.6594 39.54858,29.1947 39.54858,54.56464 0,25.36838 -16.55892,46.9042 -39.54858,54.56438 l 0,-109.12902 0,0 z"
         id="path110"
         style="fill:#d23026;fill-opacity:1;stroke:none" />
      <path
         class="fil18 str0"
         d="m 194.67539,240.91058 0,109.27062 c -23.15547,-7.56412 -39.87006,-29.1822 -39.87006,-54.67006 0,-25.15857 16.28456,-46.54523 38.97459,-54.37018 l 0.89547,-0.23038 0,0 z"
         id="path112"
         style="fill:#00923f;fill-opacity:1;stroke:none" />
      <polygon
         transform="matrix(2.6031132,0,0,2.6031132,-792.51884,-378.1566)"
         class="fil4 str0"
         points="393.304,284.258 379.201,284.258 379.201,233.289 393.303,233.289 "
         id="polygon114"
         style="fill:#ffffff;stroke:none" />
      <polygon
         transform="matrix(2.6031132,0,0,2.6031132,-792.51884,-378.1566)"
         class="fil4 str0"
         points="402.075,267.718 402.085,250.01 397.473,250.01 397.473,267.718 "
         id="polygon116"
         style="fill:#ffffff;stroke:none" />
      <path
         class="fil4 str0"
         d="m 164.22678,272.64774 0,46.09436 11.97926,0 0,-18.33294 c 5.45483,0 7.57793,0 7.57793,0 6.60748,-1.2862 7.31605,-6.90034 7.31605,-6.90034 l -2.6e-4,-13.41306 c -0.40609,-6.44114 -7.17809,-7.44828 -7.17809,-7.44828 l -19.69489,2.6e-4 0,0 0,0 z m 12.50223,7.21426 0,10.46634 c 3.75135,-0.0945 3.85885,-2.21395 3.85885,-2.21395 l 0,-4.89723 c 0.1286,-3.74276 -3.85885,-3.35516 -3.85885,-3.35516 l 0,0 z"
         id="path118"
         style="fill:#ffffff;stroke:none" />
      <path
         class="fil3 str0"
         d="m 164.22678,272.64774 0,46.09436 11.97926,0 0,-18.33294 c 5.45483,0 7.57793,0 7.57793,0 6.60748,-1.2862 7.31605,-6.90034 7.31605,-6.90034 l -2.6e-4,-13.41306 c -0.40609,-6.44114 -7.17809,-7.44828 -7.17809,-7.44828 l -19.69489,2.6e-4 m 12.50223,7.21426 0,10.46634 c 3.75135,-0.0945 3.85885,-2.21395 3.85885,-2.21395 l 0,-4.89723 c 0.1286,-3.74276 -3.85885,-3.35516 -3.85885,-3.35516 l 0,0 z"
         id="path120"
         style="fill:none;stroke:none" />
      <path
         class="fil14 str0"
         d="m 199.67337,255.10536 0,46.09514 11.98031,0 0,-19.52517 c 5.27885,-0.20148 4.2626,3.62302 4.2626,3.62302 l 0,15.90215 12.18309,0 0,-18.11662 c 0.81217,-3.62302 -3.65503,-6.03871 -3.65503,-6.03871 3.65503,-2.01298 3.45224,-6.44114 3.45224,-6.44114 l 0,-8.05143 c -0.0299,-7.71745 -8.52806,-7.44829 -8.52806,-7.44829 l -19.69515,5.3e-4 0,5.2e-4 0,0 z m 12.38535,7.44724 0,10.46712 c 3.75057,-0.0945 3.85756,-2.21421 3.85756,-2.21421 l 0,-4.89749 c 0.12911,-3.74146 -3.85756,-3.35542 -3.85756,-3.35542 l 0,0 z"
         id="path122"
         style="fill:#131516;stroke:none" />
      <path
         class="fil3 str0"
         d="m 199.67337,255.10536 0,46.09514 11.98031,0 0,-19.52517 c 5.27885,-0.20148 4.2626,3.62302 4.2626,3.62302 l 0,15.90215 12.18309,0 0,-18.11662 c 0.81217,-3.62302 -3.65503,-6.03871 -3.65503,-6.03871 3.65503,-2.01298 3.45224,-6.44114 3.45224,-6.44114 l 0,-8.05143 c -0.0299,-7.71745 -8.52806,-7.44829 -8.52806,-7.44829 l -19.69515,5.3e-4 m 12.38535,7.44776 0,10.46712 c 3.75057,-0.0945 3.85756,-2.21421 3.85756,-2.21421 l 0,-4.89749 c 0.12911,-3.74146 -3.85756,-3.35542 -3.85756,-3.35542 l 0,0 z"
         id="path124"
         style="fill:none;stroke:none" />
    </g>
  </g>
</svg>
