<svg version="1.2" xmlns="http://www.w3.org/2000/svg" viewBox="0 0 470 471" width="470" height="471">
	<title>Worker's_Party_logo_(Mexico) (2)-svg</title>
	<style>
		.s0 { fill: #da251d } 
		.s1 { fill: #eee500 } 
		.s2 { fill: none;stroke: #000000;stroke-miterlimit:100;stroke-width: 31 } 
	</style>
	<path id="Forma 1" class="s0" d="m0 0h470v471h-470z"/>
	<g id="layer1">
		<g id="g4009">
			<path id="path61" fill-rule="evenodd" class="s0" d="m47 0h375.4c25.8 0 46.9 21.1 46.9 47v376.2c0 25.8-21.1 46.9-46.9 46.9h-375.4c-25.9 0-47-21.1-47-46.9v-376.2c0-25.9 21.1-47 47-47z"/>
			<path id="path63" fill-rule="evenodd" class="s1" d="m242.8 89.2h46.3l-36.9 28.1 13.6 46.7-37.8-27.5-38 27.9 14.5-46.2-36.4-29h44.9l15.3-46.7zm-9.2 104.9h184.7v56.8h-62.8v175.7h-60.5v-175.7h-61.4zm-71.9-0.4c39.1 5.2 56.4 32.4 56.9 73.7 0.5 41.1-26.5 71.1-60.2 73.1q-23.5 0-47 0c0 29.1 0 58 0 87.1q-30.1 0-60.3 0c0-78 0-155.6 0-233.5 37-0.2 73.6-0.4 110.6-0.4zm-50.3 47c0 17.5 0 35 0 52.5 6.7 0 13.5 0 20.2 0 21.1-0.4 27-13.5 27.2-24.8 0-11.3-4.5-26.9-27.7-27.7q-9.8 0-19.7 0z"/>
		</g>
		<path id="Forma 2" class="s2" d="m0 0h470v471h-470z"/>
	</g>
</svg>