<?xml version="1.0" encoding="UTF-8" standalone="no"?>
<svg
   xmlns:dc="http://purl.org/dc/elements/1.1/"
   xmlns:cc="http://creativecommons.org/ns#"
   xmlns:rdf="http://www.w3.org/1999/02/22-rdf-syntax-ns#"
   xmlns:svg="http://www.w3.org/2000/svg"
   xmlns="http://www.w3.org/2000/svg"
   xmlns:sodipodi="http://sodipodi.sourceforge.net/DTD/sodipodi-0.dtd"
   xmlns:inkscape="http://www.inkscape.org/namespaces/inkscape"
   version="1.1"
   width="300"
   height="300"
   id="svg3605"
   sodipodi:docname="Logo_Partido_Verde_(México).svg"
   inkscape:version="1.0.1 (3bc2e813f5, 2020-09-07)">
  <sodipodi:namedview
     pagecolor="#ffffff"
     bordercolor="#666666"
     borderopacity="1"
     objecttolerance="10"
     gridtolerance="10"
     guidetolerance="10"
     inkscape:pageopacity="0"
     inkscape:pageshadow="2"
     inkscape:window-width="1366"
     inkscape:window-height="705"
     id="namedview15"
     showgrid="false"
     inkscape:zoom="0.88966435"
     inkscape:cx="-215.59111"
     inkscape:cy="317.15918"
     inkscape:window-x="-8"
     inkscape:window-y="-8"
     inkscape:window-maximized="1"
     inkscape:current-layer="svg3605" />
  <defs
     id="defs3607">
    <inkscape:perspective
       sodipodi:type="inkscape:persp3d"
       inkscape:vp_x="0 : 526.18109 : 1"
       inkscape:vp_y="0 : 1000 : 0"
       inkscape:vp_z="744.09448 : 526.18109 : 1"
       inkscape:persp3d-origin="372.04724 : 350.78739 : 1"
       id="perspective3812" />
    <inkscape:perspective
       id="perspective3771"
       inkscape:persp3d-origin="0.5 : 0.33333333 : 1"
       inkscape:vp_z="1 : 0.5 : 1"
       inkscape:vp_y="0 : 1000 : 0"
       inkscape:vp_x="0 : 0.5 : 1"
       sodipodi:type="inkscape:persp3d" />
  </defs>
  <metadata
     id="metadata3610">
    <rdf:RDF>
      <cc:Work
         rdf:about="">
        <dc:format>image/svg+xml</dc:format>
        <dc:type
           rdf:resource="http://purl.org/dc/dcmitype/StillImage" />
        <dc:title />
      </cc:Work>
    </rdf:RDF>
  </metadata>
  <g
     id="g1022"
     transform="translate(363.05827,6.7441226)">
    <path
       class="fil0 str0"
       d="m -333.0456,-6.7441226 h 239.974652 c 16.492913,0 30.01268,13.4507887 30.01268,29.8628696 V 262.39242 c 0,16.41267 -13.519767,29.86345 -30.01268,29.86345 H -333.0456 c -16.49409,0.002 -30.01267,-13.44961 -30.01267,-29.86169 V 23.118747 c 0,-16.4120809 13.51858,-29.8628696 30.01267,-29.8628696 z"
       id="path18"
       style="fill:#50b747;fill-opacity:1;fill-rule:evenodd;stroke:none;stroke-width:2.25919" />
    <g
       id="g991">
      <polygon
         transform="matrix(5.8955891,0,0,5.8662762,-3135.561,-1380.8431)"
         class="fil4 str0"
         points="475.337,283.103 472.56,270.503 476.052,270.545 477.251,278.602 478.513,270.545 482.005,270.545 479.081,283.103 "
         id="polygon20"
         style="fill:#ffffff;fill-rule:evenodd;stroke:none" />
      <polygon
         transform="matrix(5.8955891,0,0,5.8662762,-3135.561,-1380.8431)"
         class="fil4 str0"
         points="485.875,279.717 490.167,279.717 490.167,283.124 482.699,283.124 482.699,270.503 490.167,270.503 490.167,273.911 485.875,273.911 485.875,275.257 490.167,275.257 490.167,278.476 485.875,278.476 "
         id="polygon22"
         style="fill:#ffffff;fill-rule:evenodd;stroke:none" />
      <path
         class="fil4 str0"
         d="m -213.49484,206.00224 c 3.5969,0 6.07718,0.37017 7.44142,0.49162 20.70883,1.35745 20.835,31.96064 8.67889,39.85841 -0.86843,0.4951 -1.98209,0.86527 -3.4725,0.98669 5.95277,1.23604 10.04607,14.06793 15.25247,32.70099 l -21.70284,0.002 c -2.60466,-10.4895 -4.46415,-17.64695 -6.20038,-21.47 v -19.9911 c 0.61843,0 1.23983,-0.12372 1.98387,-0.12372 3.34691,-0.24697 4.83732,-12.71047 -0.37379,-14.19169 -0.62022,-0.12147 -1.11427,-0.12147 -1.61244,-0.24638 v -18.01653 h 0.005 z m -24.55572,74.04064 v -74.03886 h 23.81053 c 0.24997,0 0.49581,0 0.74578,0 v 18.01651 c -0.99222,0 -1.98446,0.12372 -3.10226,0.12372 l -1.98211,-0.12372 v 14.56125 c 1.73626,0 3.3487,0 5.08496,0 l -0.001,19.98934 c -0.37378,-0.8641 -0.74578,-1.48122 -1.11662,-2.09953 h -4.46356 v 23.57012 h -18.97554 z"
         id="path24"
         style="fill:#ffffff;fill-rule:evenodd;stroke:none;stroke-width:2.25919" />
      <path
         class="fil4 str0"
         d="m -154.33849,206.24865 c 23.31528,0.12372 27.78001,16.9066 27.6562,35.78662 -0.12208,16.1657 -3.4725,34.30539 -23.19149,37.88382 -1.61244,0.37193 -3.10106,0.12372 -4.46471,0.12372 v -21.59494 c 6.69678,-1.97459 8.06161,-9.38076 8.06161,-16.53587 0,-6.78727 -2.47849,-12.21709 -8.06161,-14.0679 v -21.59552 z m -27.53417,0 h 27.2842 c 0,0 0.12434,0 0.24997,0 v 21.59552 c -1.61244,-0.49337 -3.5969,-0.61538 -5.82898,-0.49337 h -2.23266 v 31.4667 c 0.86843,0 1.73626,0 2.60468,0 2.10885,0.24875 3.9689,0 5.45696,-0.37014 v 21.59552 c -0.49582,-0.12372 -0.99224,-0.12372 -1.48806,-0.12372 l -26.04376,5.8e-4 v -73.67103 h -0.002 z"
         id="path26"
         style="fill:#ffffff;fill-rule:evenodd;stroke:none;stroke-width:2.25919" />
      <polygon
         transform="matrix(5.8955891,0,0,5.8662762,-3135.561,-1380.8431)"
         class="fil4 str0"
         points="514.421,279.717 518.691,279.717 518.691,283.124 511.224,283.124 511.224,270.503 518.691,270.503 518.691,273.911 514.421,273.911 514.421,275.257 518.691,275.257 518.691,278.476 514.421,278.476 "
         id="polygon28"
         style="fill:#ffffff;fill-rule:evenodd;stroke:none" />
      <g
         transform="matrix(5.8955891,0,0,5.8662762,-3135.561,-1380.8431)"
         style="fill-rule:evenodd;stroke:none"
         id="_133566392">
        <path
           id="_133567232"
           class="fil5 str0"
           d="m 476.136,258.723 c 3.8151,-0.3752 7.6091,-0.875 11.4032,-1.4367 l -1.8453,-3.7534 c -1.7464,0.15 -8.1132,3.0737 -9.5579,5.1901 z"
           style="fill:#99c85e;stroke:none" />
        <path
           id="_133566760"
           class="fil6 str0"
           d="m 476.22,258.997 c 2.3808,2.214 8.887,3.3485 13.5505,2.8296 l -2.1383,-4.3497 c -3.8111,0.4999 -7.622,1.0202 -11.4122,1.5201 z"
           style="fill:#2ba74b;stroke:none" />
      </g>
      <g
         transform="matrix(5.8955891,0,0,5.8662762,-3135.561,-1380.8431)"
         style="fill-rule:evenodd;stroke:none"
         id="_133765488">
        <path
           id="_133766208"
           class="fil3 str0"
           d="m 495.405,262.257 0.6024,-1.4331 c -0.3567,0.1159 -0.7131,0.2322 -1.0711,0.3485 z"
           style="fill:none;stroke:none" />
        <path
           id="_133765824"
           class="fil3 str0"
           d="m 496.007,260.824 c -0.3567,0.1159 -0.7131,0.2322 -1.0711,0.3485 l 0.4687,1.0844 z"
           style="fill:none;stroke:none" />
      </g>
      <g
         transform="matrix(5.8955891,0,0,5.8662762,-3135.561,-1380.8431)"
         style="fill-rule:evenodd;stroke:none"
         id="_133758424">
        <path
           id="_133764640"
           class="fil4 str0"
           d="m 505.594,252.472 3.4841,-7.191 -5.7849,-1.3676 -2.1877,5.0275 -1.5038,3.4688 c 0.0105,9e-4 0.0211,0.001 0.0313,0.002 1.9645,0.0821 3.9483,0.1181 5.961,0.0602 z"
           style="fill:#ffffff;stroke:none" />
        <g
           style="stroke:none"
           id="g38">
          <g
             style="stroke:none"
             id="g40">
            <path
               id="_133763056"
               class="fil7 str0"
               d="m 498.387,252.329 c 0.5958,-1.6729 1.1369,-3.4338 0.9309,-5.6595 -0.0207,-0.7993 -0.2103,-1.22 -0.4418,-1.5356 -0.2107,-0.2524 -0.3579,-0.5262 -0.442,-0.7994 -0.0632,-0.3576 -0.168,-0.631 -0.2521,-0.8414 -0.1473,-0.3577 -0.1052,-0.6101 -0.0842,-0.7994 0.1049,-0.5469 0.2736,-1.0518 0.5052,-1.5145 0.3783,0.1049 0.9758,0.0548 1.2409,-0.1683 2.5033,-0.2945 5.5537,-0.0632 8.099,0.8204 0.1679,0.0842 0.3156,0.1683 0.4418,0.3156 0.1052,0.2104 0.4204,0.1683 0.3786,-0.1683 0.0211,-2.3347 -1.6407,-4.144 -3.7022,-5.0482 -1.0939,-0.3579 -2.4823,-0.6101 -3.7444,-0.6735 -1.1777,-0.0631 -2.8399,-0.0631 -3.2812,0.3156 -1.7881,-0.1683 -3.0924,0.6101 -3.913,2.3139 -1.0097,2.314 -1.3253,3.8076 -1.2833,4.9227 -2.2649,2.642 -1.561,5.5769 -0.4315,8.5755 1.979,-0.1611 3.9695,-0.1684 5.9793,-0.0556 z"
               style="fill:#25282f;stroke:none" />
            <path
               id="_133762176"
               class="fil5 str0"
               d="m 505.594,252.472 c -2.0127,0.0582 -3.9965,0.0222 -5.961,-0.0599 -0.0103,-8e-4 -0.0208,-0.001 -0.0313,-0.002 -0.4058,-0.0322 -0.8101,-0.0585 -1.2147,-0.081 -2.0098,-0.1127 -4.0003,-0.1054 -5.9797,0.0549 -0.4072,0.033 -0.8139,0.0704 -1.2201,0.1168 l 1.7384,4.0211 c 4.4903,-0.6696 8.731,-1.4228 12.5767,-2.3218 3.7023,-0.7363 7.0052,-1.7246 9.8238,-2.9029 -3.3415,0.7582 -6.5723,1.0834 -9.7321,1.1748 z"
               style="fill:#99c85e;stroke:none" />
          </g>
          <g
             style="stroke:none"
             id="g44">
            <path
               id="_133761272"
               class="fil3 str0"
               d="m 496.007,260.824 c -0.3567,0.1159 -0.7131,0.2322 -1.0711,0.3485 l 0.4687,1.0844 z"
               style="fill:none;stroke:none" />
            <path
               id="_133760168"
               class="fil6 str0"
               d="m 500.874,255.294 c -2.584,0.4201 -5.2517,0.9241 -7.8981,1.3445 -0.004,6e-4 -0.008,10e-4 -0.0114,0.002 0.6311,1.5145 1.3195,3.0174 1.9715,4.532 0.012,-0.004 0.1248,-0.0479 0.1367,-0.0517 0.3579,-0.1163 0.5779,-0.1809 0.9343,-0.2971 2.2345,-0.7284 4.4461,-1.4623 6.6338,-2.3102 4.327,-1.677 8.5622,-3.8008 12.7056,-7.2161 -4.5647,1.8511 -9.4031,3.1554 -14.4724,3.9968 z"
               style="fill:#2ba74b;stroke:none" />
            <path
               id="_133759440"
               class="fil4 str0"
               d="m 492.924,256.653 c 0.004,-6e-4 0.008,-0.001 0.0114,-0.002 l -0.0506,-0.1166 -1.7384,-4.0211 -3.7128,-8.5871 -5.8266,1.3884 4.0465,8.2307 1.8453,3.7535 0.0932,0.1896 2.1383,4.3497 2.9836,6.0685 h 5.2376 l 3.1136,-6.2894 1.5353,-3.0914 c -2.1877,0.8478 -4.399,1.5818 -6.6338,2.3102 l -0.6021,1.433 -0.4143,-1.1073 m -2.0262,-4.5089 z"
               style="fill:#ffffff;stroke:none" />
          </g>
        </g>
      </g>
      <path
         class="fil4 str0"
         d="m -327.96361,136.40475 c 54.07201,-5.92317 109.38381,-14.06792 167.54676,-25.17395 18.72676,-3.70161 36.33865,-8.63808 49.1132,-12.463479 -25.30033,9.748569 -59.52952,17.523159 -102.06916,24.063459 -33.11315,5.18286 -71.06188,10.85906 -114.22054,15.91871 -1.23868,0.12327 -1.36247,-2.09777 -0.37026,-2.34474 z"
         id="path49"
         style="fill:#ffffff;fill-rule:evenodd;stroke:none;stroke-width:2.25919" />
      <path
         class="fil8"
         d="m -157.43958,21.6428 c 1.48806,-1.111074 4.58853,-6.04696 5.70457,-8.144755 10.29488,7.528203 14.63404,15.425968 13.89002,23.323146 -4.46474,-6.910479 -10.66573,-12.46348 -19.59459,-15.178391 z"
         id="path51"
         style="fill:#d82623;fill-rule:evenodd;stroke:none;stroke-width:2.25919" />
      <path
         class="fil9"
         d="m -198.36675,7.4522795 c 4.46709,-1.9722496 10.04607,-1.7276255 16.49526,-1.6044458 10.91509,0 24.06107,2.7149109 28.89606,7.0342673 -1.36424,3.949164 -3.5969,6.540895 -6.201,8.022702 -13.02334,-4.072366 -25.54735,-3.950921 -37.70288,-2.838676 0.001,-3.456423 -0.36964,-7.282407 -1.48744,-10.6138475 z"
         id="path53"
         style="fill:#f4de00;fill-rule:evenodd;stroke:none;stroke-width:2.25919" />
      <path
         class="fil10"
         d="m -196.99898,19.296279 c 0.12434,-0.493936 0,-0.864106 11.53413,-0.740318 9.79728,0.12327 18.97613,0.12327 28.15203,4.195546 9.54967,3.579017 15.38041,8.514903 18.6047,14.561276 -8.68124,-3.330291 -18.23093,-4.813269 -28.02821,-5.676789 -7.43906,-0.49335 -14.88165,-0.49335 -22.4451,0.12372 -1.11662,0 -0.87728,2.181651 -6.82178,0.864083 -2.23384,-1.480635 -3.10167,-4.441927 -2.23384,-8.638082 0.24762,-1.974593 0.74402,-3.208846 1.23807,-4.689504 z"
         id="path55"
         style="fill:#2ca74b;fill-rule:evenodd;stroke:none;stroke-width:2.25919" />
      <path
         class="fil9"
         d="m -204.06779,9.0537731 c 1.61421,-0.986722 2.97668,-1.7276254 3.84511,-1.6056176 0.86842,0.1237205 0.98986,1.1110735 1.23983,2.0995533 0.74463,3.3302682 0.86842,7.6507972 0.37261,10.9810652 -1.48806,5.182877 -2.35648,9.131455 0.62022,12.095091 0.99045,0.74034 0.99045,1.358041 0.2482,2.345349 -0.68212,2.189876 -4.08271,7.904796 -1.86064,12.217099 2.11002,6.044616 1.86064,9.378423 0.99222,11.723163 -0.62023,3.579017 -4.21654,7.403829 -11.16152,7.157448 -4.71059,-0.123721 -11.28593,-1.974594 -13.39185,-10.242506 -1.61421,-7.034267 1.36423,-16.53587 6.2004,-27.026537 4.83497,-9.624782 9.17529,-16.905431 12.89542,-19.7441079 z"
         id="path57"
         style="fill:#f4de00;fill-rule:evenodd;stroke:none;stroke-width:2.25919" />
      <path
         class="fil7"
         d="m -204.43922,22.751507 c 2.10826,0 3.72013,-1.727603 3.72013,-3.702196 0,-2.099531 -1.61364,-3.702219 -3.72013,-3.702219 -1.98446,0 -3.72069,1.604446 -3.72069,3.702219 0,1.974593 1.73623,3.702196 3.72069,3.702196 z"
         id="path59"
         style="fill:#25282f;fill-rule:evenodd;stroke:none;stroke-width:2.25919" />
    </g>
  </g>
</svg>
